<?xml version="1.0" encoding="utf-8"?>
<!-- Generator: Adobe Illustrator 20.1.0, SVG Export Plug-In . SVG Version: 6.00 Build 0)  -->
<svg version="1.1" id="Capa_1" xmlns="http://www.w3.org/2000/svg" xmlns:xlink="http://www.w3.org/1999/xlink" x="0px" y="0px"
	 viewBox="0 0 50 50" style="enable-background:new 0 0 50 50;" xml:space="preserve">
<style type="text/css">
	.st0{fill:#FFFFFF;}
</style>
<g>
	<path class="st0" d="M34.3,16.9c0.8,0,1.3,0.2,1.7,0.4c0.9,0.4,1.9,0.9,3.2,1.5c0,0,2.1-1.5,2.2-1.6c0.7-0.5,1.4-0.1,1.6,0.3
		c0.8,1.5,2.2,4.5,3,7.4c0.1,0.3,0,0.9-0.5,1c-0.3,0.1-0.8,0.2-1.4,0.2c-0.8,0.1-0.7,0.7-0.7,1.1c0,0.5,0,3.6,0,4.6
		c0,0.6-0.5,2.8-2.9,2.8c-0.2,0-5.6,0-5.6,0c-2.1,0-3.8-1.8-3.8-3.7c0-1.3,0-10,0-11C31.1,18.2,32.8,16.9,34.3,16.9L34.3,16.9z"/>
	<path class="st0" d="M25.5,34.7H7.3v2h21.4c0,0,0.8-1.8,0.8-3.8c0-0.1,0-13.7,0-13.7c0-1.1,0.4-2.9,2.7-3.4c0.1,0,0.1,0,0.2,0
		c6.3-1.5,12.8-0.1,16.5,1.4c0.7,0.3,0.8-0.2,0.8-0.4c0.1-3.1-2.3-6.6-6.6-6.8c-3.5-0.1-5.5,1.2-6.2,1.5c-0.1,0-0.1,0-0.2-0.1
		c-0.6-0.6-2-1.6-3.6-2C32.8,9.4,32.7,9,33,9c3.3-0.4,6.2,0,7.4,0.2c0.3,0,0.5-0.1,0.4-0.4c-0.1-0.2-0.2-0.3-0.3-0.6
		c-0.3-0.6-1.1-1.3-2.1-1.6c-2.6-0.7-7.1-1.4-11-1.4c-4.5,0-9.1,0.9-10.3,1.1c-0.3,0.1-0.7,0.2-0.8,0.2C16,6.6,15.9,7,16.1,7.1
		c0.1,0.1,0.3,0.3,0.4,0.4c0.1,0.2,0.2,0.4-0.1,0.7l-8.2,7.4h5.6h0.1c0.4,0,0.7,0.3,0.7,0.7c0,0.4-0.3,0.7-0.7,0.7h0H6.6l-2.2,2h9.6
		l0.1,0c0.4,0,0.7,0.4,0.7,0.7c0,0.3-0.3,0.7-0.7,0.7l-0.1,0H2.7l-2.2,2h19.4l0.1,0c0.4,0,0.7,0.4,0.7,0.7c0,0.4-0.3,0.8-0.7,0.7
		h-0.1H0.5v2h19.3l0.1,0c0.4,0,0.7,0.4,0.7,0.8c0,0.3-0.3,0.7-0.7,0.7h-0.1H0.5v2h25.3h0.1c0.4,0,0.7,0.4,0.7,0.8
		c0,0.3-0.3,0.7-0.7,0.7h-0.1H7.3v2h18.2l0.4,0c0.3,0,0.6,0.4,0.6,0.8c0,0.3-0.3,0.7-0.6,0.7H25.5L25.5,34.7z"/>
	<path class="st0" d="M14.1,41.7l0,2.1c0,0,2.7,0,4.3,0c3.8,0,6.4-2.1,6.4-2.1H14.1L14.1,41.7z"/>
	<path class="st0" d="M14.1,38.2l0,2h12.4c0.6-0.6,1.3-1.6,1.5-2L14.1,38.2L14.1,38.2z"/>
</g>
</svg>
