<?xml version="1.0" encoding="utf-8"?>
<!-- Generator: Adobe Illustrator 19.2.1, SVG Export Plug-In . SVG Version: 6.00 Build 0)  -->
<svg version="1.1" id="Capa_1" xmlns="http://www.w3.org/2000/svg" xmlns:xlink="http://www.w3.org/1999/xlink" x="0px" y="0px"
	 viewBox="0 0 394.4 75" style="enable-background:new 0 0 394.4 75;" xml:space="preserve">
<style type="text/css">
	.st0{fill:#FFFFFF;}
	.st1{fill:#DC1219;}
</style>
<g>
	<path class="st0" d="M328.6,47.7c-1.3,0-2.3,1-2.3,2.3c0,1.3,1.1,2.3,2.3,2.3c1.2,0,2.3-1,2.3-2.3
		C330.9,48.7,329.8,47.7,328.6,47.7L328.6,47.7z M328.6,51.9c-1,0-1.9-0.8-1.9-1.9c0-1.1,0.8-1.9,1.9-1.9c1,0,1.8,0.8,1.8,1.9
		C330.4,51.1,329.6,51.9,328.6,51.9L328.6,51.9z"/>
	<path class="st0" d="M329,50.2c0.4,0,0.7-0.2,0.7-0.7c0-0.5-0.3-0.8-0.9-0.8h-1v2.6h0.4v-1.1h0.5l0.7,1.1h0.4L329,50.2L329,50.2z
		 M328.1,49.8V49h0.5c0.3,0,0.6,0.1,0.6,0.4c0,0.4-0.3,0.4-0.6,0.4H328.1L328.1,49.8z"/>
	<path class="st0" d="M55.9,25.6c1.2,0,2,0.4,2.6,0.7c1.3,0.6,2.9,1.4,4.9,2.3c0,0,3.2-2.3,3.3-2.4c1.1-0.7,2.1-0.2,2.5,0.5
		c1.2,2.2,3.4,6.9,4.5,11.1c0.1,0.5,0,1.3-0.8,1.5c-0.5,0.1-1.3,0.2-2.1,0.3c-1.2,0.1-1.1,1.1-1.1,1.6c0,0.7,0,5.4,0,7
		c0,1-0.7,4.2-4.4,4.2c-0.2,0-8.5,0-8.5,0c-3.2,0-5.8-2.7-5.8-5.6c0-1.9,0-15.1,0-16.6C51,27.5,53.5,25.6,55.9,25.6L55.9,25.6z"/>
	<path class="st0" d="M42.5,52.5H14.9v3.1h32.3c0,0,1.2-2.7,1.2-5.7c0-0.2,0-20.8,0-20.8c0-1.6,0.7-4.4,4-5.1c0.1,0,0.2,0,0.3-0.1
		c9.5-2.3,19.4-0.2,24.9,2.2c1,0.5,1.2-0.3,1.2-0.6c0.1-4.7-3.4-10-10-10.3c-5.3-0.1-8.2,1.8-9.3,2.3c-0.1,0-0.2,0-0.3-0.1
		c-1-1-3.1-2.4-5.4-3.1c-0.4-0.1-0.4-0.6,0-0.6c5-0.5,9.4,0,11.2,0.3c0.4,0.1,0.7-0.2,0.6-0.6c-0.1-0.3-0.2-0.4-0.5-0.9
		c-0.4-1-1.6-2-3.1-2.4C58.1,9,51.4,8,45.4,8c-6.7,0-13.8,1.3-15.6,1.7c-0.4,0.1-1,0.2-1.1,0.3c-0.5,0.1-0.6,0.6-0.4,0.8
		c0.1,0.1,0.5,0.5,0.7,0.7c0.2,0.3,0.3,0.7-0.1,1.1L16.4,23.7h8.5H25c0.6,0,1.1,0.5,1.1,1.1c0,0.6-0.5,1.1-1,1.1H25H13.9L10.5,29H25
		l0.1,0c0.6,0,1,0.6,1,1.1c0,0.5-0.4,1.1-1,1.1l-0.1,0H8l-3.4,3.1h29.3l0.1,0c0.6,0,1,0.6,1,1.1c0,0.6-0.4,1.1-1,1.1H34H4.6v3.1
		h29.3l0.1,0c0.7,0,1.1,0.6,1.1,1.2c0,0.5-0.5,1.1-1.1,1.1h-0.1H4.6v3.1h38.2h0.1c0.6,0,1,0.6,1,1.2c0,0.5-0.4,1.1-1,1.1h-0.1H14.9
		v3.1h27.5l0.6,0c0.5,0,1,0.6,1,1.2c0,0.5-0.5,1.1-1,1.1H42.5L42.5,52.5z"/>
	<path class="st0" d="M25.2,63.1l0,3.1c0,0,4.1,0,6.5,0c5.8,0,9.6-3.1,9.6-3.1H25.2L25.2,63.1z"/>
	<path class="st0" d="M25.2,57.8l0,3.1h18.7c0.9-0.9,2-2.5,2.3-3.1L25.2,57.8L25.2,57.8z"/>
	<path class="st0" d="M326.7,38.8c0-0.1,0-0.1,0-0.2c-0.1-2.4-0.9-4.5-2-6.2c-2.3-3.6-6.4-5.6-11.3-5.5c-4.9-0.1-9,1.9-11.3,5.5
		c-1.1,1.6-1.9,3.8-2,6.2c0,0.1,0,0.1,0,0.2c-0.7,8,4,13.5,11.9,14.1c0.5,0,0.9,0.1,1.4,0.1c0.5,0,0.9,0,1.4-0.1
		C322.8,52.3,327.4,46.8,326.7,38.8L326.7,38.8z M314.1,49.2c-0.2,0-0.4,0-0.6,0c-0.2,0-0.4,0-0.6,0c-1.2-0.1-2.1-0.5-2.9-1.2
		c-0.2-0.2-0.5-0.4-0.7-0.7c-1.2-1.4-1.9-3.7-2-5.6c-0.4-4.3,0.5-10.6,5.8-11c0.1,0,0.3,0,0.4,0c0,0,0,0,0.1,0c0,0,0,0,0.1,0
		c0.1,0,0.3,0,0.4,0c5.3,0.4,6.2,6.7,5.8,11c-0.2,1.8-0.8,4.1-2,5.6c-0.2,0.3-0.5,0.5-0.7,0.7C316.1,48.7,315.1,49.1,314.1,49.2
		L314.1,49.2z"/>
	<path class="st0" d="M274.1,32.9c0-2,0.2-5.4,0.2-5.4h0h-6.5h0c0,0,0.2,3.5,0.2,5.4l0,14.2c0,2-0.2,5.3-0.2,5.3h0h6.5h0
		c0,0-0.2-3.4-0.2-5.3L274.1,32.9L274.1,32.9z"/>
	<path class="st0" d="M236.1,48.6c-1.4,0-3.1,0-4.5,0c-0.1-2.5-0.1-4.9-0.1-7.1l0-0.3h0c0,0,0,0,0-0.1h7.5v-3.5h-7.5
		c0-3.8,0.1-6.3,0.1-6.3l9.3,0v-3.7c-6.5,0-15.9,0-15.9,0s0.1,3.4,0.1,5.4v14.2c0,1.8-0.1,4.9-0.1,5.4h16.5l0-4
		C241.5,48.5,238.3,48.6,236.1,48.6L236.1,48.6z"/>
	<path class="st0" d="M127.8,48.6c-1.4,0-3.1,0-4.5,0c-0.1-2.5-0.1-4.9-0.1-7.1l0-0.3h0c0,0,0,0,0-0.1h7.5v-3.5h-7.5
		c0-3.8,0.1-6.3,0.1-6.3l9.3,0v-3.7c-6.5,0-15.9,0-15.9,0s0.1,3.4,0.1,5.4v14.2c0,1.8-0.1,4.9-0.1,5.4h16.5l0-4
		C133.2,48.5,130,48.6,127.8,48.6L127.8,48.6z"/>
	<path class="st0" d="M257.4,39l7.2-11.5h-5l0,0.1c-1.5,2.6-3.4,5.7-4.1,6.9l-0.3,0.5l-4.2-7.5h-7.5l7.2,12.9l-7.5,12.1h4.9
		c3.2-5.5,4.8-8,4.8-8l4.5,8h7.4L257.4,39L257.4,39z"/>
	<path class="st0" d="M294.3,49.1c-5.8,0-8.9-4.3-8.7-9.5c0.1-4.6,2.2-8.4,7.2-8.8c1.9-0.1,3.5,0.2,6.1,0.9l-0.3-3.9
		c0,0-2.3-0.7-5.5-0.8c-4.1-0.2-7.8,0.6-10.8,3.4c-2.6,2.4-4.2,6-4.2,9.5c0,3.9,1.6,7.4,4.6,9.9c3.1,2.6,6.4,3.2,10.4,3.2
		c2.6,0,4.1-0.2,6.6-0.9l-0.4-3.8C298.8,48.5,296.9,49.1,294.3,49.1L294.3,49.1z"/>
	<path class="st0" d="M210.9,23.7h7.2l0.2,1.7c1.6,16.7,2.6,27.1,2.6,27.1h-7.5l-0.7-10.3l-0.7-9.2l-6.4,19.6c-1.7,0-4,0-4,0
		s-2-7-2.4-7.9l-3.7-11.7c0,0-0.6,6.5-0.8,9.3c-0.4,5.6-0.8,10.4-0.8,10.4h-5.6c0,0,2.3-23.4,2.5-24.8c0.2-1.5,0.5-4,0.5-4h7.4
		l6.1,16.8L210.9,23.7L210.9,23.7z"/>
	<path class="st0" d="M185.2,38.9c0-0.1,0-0.1,0-0.2c-0.1-2.4-0.9-4.5-2-6.1c-2.3-3.6-6.4-5.6-11.2-5.5c-4.9-0.1-8.9,1.9-11.2,5.5
		c-1.1,1.6-1.9,3.8-2,6.1c0,0,0,0.1,0,0.2c-0.7,7.9,4,13.4,11.9,14.1c0.5,0,0.9,0,1.4,0c0.4,0,0.9,0,1.4,0
		C181.2,52.3,185.9,46.8,185.2,38.9L185.2,38.9z M172.6,49.2c-0.2,0-0.4,0-0.6,0c-0.2,0-0.4,0-0.6,0c-1.2-0.1-2.1-0.5-2.9-1.2
		c-0.2-0.2-0.5-0.4-0.7-0.7c-1.2-1.4-1.9-3.7-2-5.5c-0.4-4.3,0.5-10.6,5.8-11c0.1,0,0.3,0,0.4,0c0,0,0,0,0.1,0c0,0,0,0,0.1,0
		c0.1,0,0.3,0,0.4,0c5.3,0.4,6.1,6.7,5.8,11c-0.2,1.8-0.7,4.1-2,5.5c-0.2,0.2-0.5,0.5-0.7,0.7C174.6,48.7,173.7,49.1,172.6,49.2
		L172.6,49.2z"/>
	<path class="st0" d="M115.1,52.5c-0.2-0.5-1.6-3.7-2.5-6.2l-8.4-22.5h-6.6c0,0-1.9,5.3-2.1,6.1l-6.2,17.4c-0.8,2.2-1.9,5.2-1.9,5.2
		h5.4c0,0,1.5-4.8,1.8-5.7l0.8-2.4h9.3l1.3,3.7c0.3,0.7,1.4,4.4,1.4,4.5H115.1L115.1,52.5z M96.7,40.2l3.1-9.3l0.2-0.5l3.3,9.9H96.7
		L96.7,40.2z"/>
	<path class="st0" d="M159.1,52.5c-1.6-2.2-2.1-3.2-3.3-4.8l-4.5-7c2.2-1.1,4.2-2.8,4.5-6.6c0.2-2.3-1.1-4.3-1.8-4.9
		c-1.1-1-2.1-1.3-3.6-1.5c-1.2-0.2-2.1-0.2-2.8-0.2H137c0,0,0.1,3.5,0.1,5.4V47c0,2-0.1,5.4-0.1,5.4h6.5c0,0-0.2-3.4-0.2-5.4l0-4.5
		c0,0,1.4,0,2.4,0l4.1,7.5c0.6,1,1.3,2.2,1.5,2.4H159.1L159.1,52.5z M147.6,38.5c-1,0.5-3.2,0.4-4.2,0.3l0.1-7.1l0.6,0
		c2-0.2,3.4,0.1,4,0.4c0.9,0.4,1.4,1.2,1.5,2.6C149.6,36.8,148.8,37.9,147.6,38.5L147.6,38.5z"/>
	<polygon class="st0" points="378.6,14.3 378.4,14.1 378.4,14 379.2,14.3 379.1,14.5 378.8,14.3 378.5,15.1 378.3,15.1 378.6,14.3 	
		"/>
	<polygon class="st0" points="379.3,14.4 379.6,14.5 379.5,15.3 379.5,15.3 380.1,14.7 380.4,14.9 379.9,15.8 379.7,15.7 380.1,15 
		380.1,15 379.5,15.6 379.3,15.5 379.4,14.6 379.4,14.6 379,15.4 378.8,15.3 379.3,14.4 	"/>
	<path class="st0" d="M381.5,22.5L381.5,22.5c3.6,3.6,5.9,8.5,6.3,13.9c0.8,12-8.2,22.5-20.3,23.3c-5.7,0.4-11-1.4-15.1-4.7l0,0
		c4.3,4,10.1,6.3,16.4,5.8c12-0.8,21.1-11.3,20.3-23.3C388.7,31.5,385.8,26.2,381.5,22.5L381.5,22.5z"/>
	<path class="st0" d="M342.8,47.3c-0.7,0.4-0.9,1-0.5,1.9c0.3,0.8,0.8,1.2,1.4,1c0.4-0.2,0.5-0.6,0.3-1.5l-0.1-0.4
		c-0.2-1-0.2-1.4-0.1-1.8c0.1-0.5,0.4-0.8,0.8-0.9c1-0.4,1.9,0.2,2.5,1.6c0.6,1.5,0.3,2.6-0.9,3.1l-0.3-0.7c0.8-0.4,1-1.1,0.6-2.2
		c-0.4-0.9-0.9-1.3-1.5-1c-0.5,0.2-0.6,0.6-0.4,1.7l0.1,0.4l0.1,0.4c0.1,0.8,0.1,1,0.1,1.3c-0.1,0.4-0.4,0.7-0.8,0.9
		c-0.9,0.4-1.8-0.2-2.3-1.4c-0.5-1.4-0.3-2.4,0.8-2.8L342.8,47.3L342.8,47.3z"/>
	<polygon class="st0" points="342.2,39.5 345.5,36.7 345.5,37.7 342.7,40 343.6,41 345.6,41 345.6,41.8 340,41.9 340,41.1 
		342.2,41.1 342.5,41.1 342.8,41 342.6,40.8 342.4,40.6 339.9,38 339.9,36.9 342.2,39.5 	"/>
	<path class="st0" d="M344.7,30.7l2.2,0.8l-0.3,0.8l-2.2-0.8l-3.9,1.2l0.3-0.9l2.4-0.7l0.3-0.1c0.1,0,0.2,0,0.4-0.1
		c-0.2-0.2-0.2-0.3-0.4-0.6l-1.5-2l0.3-0.9L344.7,30.7L344.7,30.7z"/>
	<polygon class="st0" points="348.5,20.4 347.3,21.8 350.9,24.7 350,25.8 346.5,22.9 345.3,24.3 344.5,23.7 347.7,19.7 348.5,20.4 	
		"/>
	<polygon class="st0" points="356.1,15 353.3,16.7 353.9,17.7 356.5,16.2 357,17 354.3,18.6 355.1,19.8 358,18.1 358.5,19 
		354.4,21.4 351.6,16.5 355.6,14.1 356.1,15 	"/>
	<path class="st0" d="M367,17.2l-1.5,0.1l-0.7-1.2l-2.3,0.4l-0.3,1.4l-1.4,0.4l1.5-6.2l1.4-0.2L367,17.2L367,17.2z M363.8,14.3
		c-0.3-0.5-0.4-0.7-0.6-1.1c-0.1,0.4-0.1,0.7-0.2,1.3l-0.2,1.1l1.6-0.3L363.8,14.3L363.8,14.3z"/>
	<path class="st0" d="M376.1,19l-1.2-0.5l0.5-1.7c0.1-0.2,0.1-0.5,0.2-0.8c0.1-0.4,0.2-0.6,0.2-0.8c0.1-0.2,0.1-0.5,0.2-0.7l0.1-0.4
		c-0.3,0.6-0.5,0.8-0.8,1.2c-0.1,0.2-0.2,0.4-0.3,0.5l-1.6,2.2l-1-0.3l-0.3-2.7c0-0.1,0-0.3-0.1-0.6c0-0.4,0-0.6,0-0.8
		c0-0.2,0-0.4,0-0.7l-0.1,0.7c-0.2,0.7-0.2,1.1-0.5,1.9l-0.5,1.8l-1.2-0.2l1.4-5.5l1.9,0.4l0.3,2.6c0.1,0.6,0.1,1.1,0.1,1.8
		c0.2-0.4,0.3-0.6,0.5-0.9c0.2-0.3,0.3-0.5,0.4-0.7l1.5-2.1l1.8,0.6L376.1,19L376.1,19z"/>
	<path class="st0" d="M365.3,29.9c-0.7,0.6-2,1.9-3.3,3.2l-1.5,1.4c-1.2-0.2-2.4-0.3-3.6-0.3c-2.7,0-5.3,0.8-6.4,1.9
		c-0.4,0.4-0.7,0.9-0.6,1.4c0,1.3,1.5,2,2,2.2c2.4,0.9,4.5,0.6,6.6-0.9c1.2-0.8,2.6-2.2,3.7-3.2c0.9,0.2,1.9,0.5,2.9,0.8l1,0.3
		c-1.3,1.2-2.6,2.6-3.8,3.6l-0.1,0.1c-1.7,1.5-2.9,2.5-4.6,2.9c-1.2,0.3-2.1,0-2.4-0.2c0,0-0.1,0.1-0.1,0.1c1,0.8,2,1.3,3.6,1.2
		c1.6-0.1,3.4-1.1,5.2-2.9l2.5-2.5l1.8-1.7c0,0,3.5,1,3.5,1c0,0,0.1,0,0.1,0c0,0-2.2,2.1-2.2,2.1l-1.9,1.9c-1.9,1.9-3,2.8-4.1,3.6
		c-1.9,1.3-3.5,2-4.9,2.1c-0.7,0-1.8,0-2.7-0.5c0,0-0.1,0-0.1,0c1,0.8,2.1,1.8,4.1,1.7c2.3-0.1,4.3-1.2,7.4-4
		c1.4-1.3,2.8-2.8,4.1-4.1l2.3-2.4c1.5,0.3,2.9,0.5,4.4,0.4c2.2,0,4.1-1.1,4.1-2.3c0-0.9-0.7-1.4-1.2-1.7c-0.4-0.2-1.4-0.8-2.7-0.8
		c-1.7,0-3.4,0.7-5.1,2.2l-1.2,1c0,0-0.4-0.1-0.4-0.1l-3.2-0.9c1-0.9,1.8-1.7,2.5-2.3c1.8-1.6,3.7-2.2,4.9-2.3
		c0.8-0.1,2.3,0,2.9,0.4c0,0,0.1-0.1,0.1-0.1c-1.6-1.4-3-1.5-4.1-1.5c-1.1,0-2.9,0.4-5.1,2.1c-0.9,0.7-2.1,1.9-3.3,3.1
		c0,0-1.6-0.5-1.6-0.5l-0.4-0.1c0,0-1.7-0.5-1.7-0.5c0,0,1-0.9,1-0.9c1.2-1.1,2.3-2.2,3.1-2.9c3.1-2.6,5.1-3,6.4-3
		c1.5,0,2.7,0.3,3.5,0.9c0,0,0.1-0.1,0.1-0.1c-1.7-1.6-3-2.1-5.2-2.1C369.8,26.9,367.5,27.9,365.3,29.9L365.3,29.9z M353.1,39.2
		c-1-0.1-1.5-0.5-1.5-1.3c0-0.1,0.1-2.6,5.7-2.9c0.6,0,1.4-0.1,2.5,0.1c0,0-0.6,0.5-0.6,0.5l-0.4,0.3
		C357.4,37.3,355.1,39.4,353.1,39.2L353.1,39.2z M375.9,37.2c1.6-1.1,3-1.7,3.8-1.7c0.5,0,1.1,0.2,1.1,0.8c0,0.6-0.6,1.2-1.8,1.6
		c-1,0.4-2.6,0.5-4.3,0.3C375.2,37.8,375.6,37.4,375.9,37.2L375.9,37.2z"/>
	<path class="st1" d="M188.9,65.4c0,0,11.4-9.3,40.1-9.3c21.6,0,34.6,6.9,59.9,6.9c22.8,0,37.9-7.8,37.9-7.8s-13.3,10.4-40.1,10.4
		c-26.8,0-35.3-7-61.7-7S188.9,65.4,188.9,65.4z"/>
</g>
</svg>
